HIERARCHY
ROOT hip
{
  OFFSET 0 0 0
  CHANNELS 6 Xposition Yposition Zposition Zrotation Yrotation Xrotation
  JOINT abdomen
  {
    OFFSET 0 20.6881 -0.73152
    CHANNELS 3 Zrotation Xrotation Yrotation
    JOINT chest
    {
      OFFSET 0 11.7043 -0.48768
      CHANNELS 3 Zrotation Xrotation Yrotation
      JOINT neck
      {
        OFFSET 0 22.1894 -2.19456
        CHANNELS 3 Zrotation Xrotation Yrotation
        JOINT head
        {
          OFFSET -0.24384 7.07133 1.2192
          CHANNELS 3 Zrotation Xrotation Yrotation
          JOINT leftEye
          {
            OFFSET 4.14528 8.04674 8.04672
            CHANNELS 3 Zrotation Xrotation Yrotation
            End Site
            {
              OFFSET 1 0 0
            }
          }
          JOINT rightEye
          {
            OFFSET -3.6576 8.04674 8.04672
            CHANNELS 3 Zrotation Xrotation Yrotation
            End Site
            {
              OFFSET 1 0 0
            }
          }
        }
      }
      JOINT rCollar
      {
        OFFSET -2.68224 19.2634 -4.8768
        CHANNELS 3 Zrotation Xrotation Yrotation
        JOINT rShldr
        {
          OFFSET -8.77824 -1.95073 1.46304
          CHANNELS 3 Zrotation Xrotation Yrotation
          JOINT rForeArm
          {
            OFFSET -28.1742 -1.7115 0.48768
            CHANNELS 3 Zrotation Xrotation Yrotation
            JOINT rHand
            {
              OFFSET -22.5879 0.773209 7.07136
              CHANNELS 3 Zrotation Xrotation Yrotation
              JOINT rThumb1
              {
                OFFSET -1.2192 -0.487915 3.41376
                CHANNELS 3 Zrotation Xrotation Yrotation
                JOINT rThumb2
                {
                  OFFSET -3.37035 -0.52449 3.41376
                  CHANNELS 3 Zrotation Xrotation Yrotation
                  End Site
                  {
                    OFFSET -1.78271 -1.18214 1.43049
                  }
                }
              }
              JOINT rIndex1
              {
                OFFSET -7.75947 0.938293 5.60832
                CHANNELS 3 Zrotation Xrotation Yrotation
                JOINT rIndex2
                {
                  OFFSET -2.54057 -0.884171 1.56538
                  CHANNELS 3 Zrotation Xrotation Yrotation
                  End Site
                  {
                    OFFSET -1.62519 -0.234802 1.16502
                  }
                }
              }
              JOINT rMid1
              {
                OFFSET -8.24714 1.18213 3.41376
                CHANNELS 3 Zrotation Xrotation Yrotation
                JOINT rMid2
                {
                  OFFSET -3.10165 -0.590103 1.0647
                  CHANNELS 3 Zrotation Xrotation Yrotation
                  End Site
                  {
                    OFFSET -2.48547 -0.328903 0.83742
                  }
                }
              }
              JOINT rRing1
              {
                OFFSET -8.82822 0.546677 1.51678
                CHANNELS 3 Zrotation Xrotation Yrotation
                JOINT rRing2
                {
                  OFFSET -2.60934 -0.819778 -0.0198488
                  CHANNELS 3 Zrotation Xrotation Yrotation
                  End Site
                  {
                    OFFSET -2.33842 -0.294052 0.168128
                  }
                }
              }
              JOINT rPinky1
              {
                OFFSET -8.27202 -0.0477905 -0.4584
                CHANNELS 3 Zrotation Xrotation Yrotation
                JOINT rPinky2
                {
                  OFFSET -1.82734 -0.647385 -0.700984
                  CHANNELS 3 Zrotation Xrotation Yrotation
                  End Site
                  {
                    OFFSET -1.69225 -0.51767 -0.607171
                  }
                }
              }
            }
          }
        }
      }
      JOINT lCollar
      {
        OFFSET 2.68224 19.2634 -4.8768
        CHANNELS 3 Zrotation Xrotation Yrotation
        JOINT lShldr
        {
          OFFSET 8.77824 -1.95073 1.46304
          CHANNELS 3 Zrotation Xrotation Yrotation
          JOINT lForeArm
          {
            OFFSET 28.1742 -1.7115 0.48768
            CHANNELS 3 Zrotation Xrotation Yrotation
            JOINT lHand
            {
              OFFSET 22.5879 0.773209 7.07136
              CHANNELS 3 Zrotation Xrotation Yrotation
              JOINT lThumb1
              {
                OFFSET 1.2192 -0.487915 3.41376
                CHANNELS 3 Zrotation Xrotation Yrotation
                JOINT lThumb2
                {
                  OFFSET 3.37035 -0.52449 3.41376
                  CHANNELS 3 Zrotation Xrotation Yrotation
                  End Site
                  {
                    OFFSET 1.78271 -1.18214 1.43049
                  }
                }
              }
              JOINT lIndex1
              {
                OFFSET 7.75947 0.938293 5.60832
                CHANNELS 3 Zrotation Xrotation Yrotation
                JOINT lIndex2
                {
                  OFFSET 2.54057 -0.884171 1.56538
                  CHANNELS 3 Zrotation Xrotation Yrotation
                  End Site
                  {
                    OFFSET 1.62519 -0.234802 1.16502
                  }
                }
              }
              JOINT lMid1
              {
                OFFSET 8.24714 1.18213 3.41376
                CHANNELS 3 Zrotation Xrotation Yrotation
                JOINT lMid2
                {
                  OFFSET 3.10165 -0.590103 1.0647
                  CHANNELS 3 Zrotation Xrotation Yrotation
                  End Site
                  {
                    OFFSET 2.48547 -0.328903 0.83742
                  }
                }
              }
              JOINT lRing1
              {
                OFFSET 8.82822 0.546677 1.51678
                CHANNELS 3 Zrotation Xrotation Yrotation
                JOINT lRing2
                {
                  OFFSET 2.60934 -0.819778 -0.0198488
                  CHANNELS 3 Zrotation Xrotation Yrotation
                  End Site
                  {
                    OFFSET 2.33842 -0.294052 0.168128
                  }
                }
              }
              JOINT lPinky1
              {
                OFFSET 8.27202 -0.0477905 -0.4584
                CHANNELS 3 Zrotation Xrotation Yrotation
                JOINT lPinky2
                {
                  OFFSET 1.82734 -0.647385 -0.700984
                  CHANNELS 3 Zrotation Xrotation Yrotation
                  End Site
                  {
                    OFFSET 1.69225 -0.51767 -0.607171
                  }
                }
              }
            }
          }
        }
      }
    }
  }
  JOINT rButtock
  {
    OFFSET -8.77824 4.35084 1.2192
    CHANNELS 3 Zrotation Xrotation Yrotation
    JOINT rThigh
    {
      OFFSET 0 -1.70687 -2.19456
      CHANNELS 3 Zrotation Xrotation Yrotation
      JOINT rShin
      {
        OFFSET 0 -36.8199 0.73152
        CHANNELS 3 Zrotation Xrotation Yrotation
        JOINT rFoot
        {
          OFFSET 0.73152 -45.1104 -5.12064
          CHANNELS 3 Zrotation Xrotation Yrotation
          End Site
          {
            OFFSET -1.1221 -3.69964 12.103
          }
        }
      }
    }
  }
  JOINT lButtock
  {
    OFFSET 8.77824 4.35084 1.2192
    CHANNELS 3 Zrotation Xrotation Yrotation
    JOINT lThigh
    {
      OFFSET 0 -1.70687 -2.19456
      CHANNELS 3 Zrotation Xrotation Yrotation
      JOINT lShin
      {
        OFFSET 0 -36.8199 0.73152
        CHANNELS 3 Zrotation Xrotation Yrotation
        JOINT lFoot
        {
          OFFSET -0.73152 -45.1104 -5.12064
          CHANNELS 3 Zrotation Xrotation Yrotation
          End Site
          {
            OFFSET 1.1221 -3.69964 12.103
          }
        }
      }
    }
  }
}
MOTION
Frames:	4
Frame Time:	0.03333
-0.9427800824818514 5.72070690161422 0.0803112318908611 -11.27127456665039 6.76385498046875 27.38324546813965 5.278122901916504 10.387365341186523 9.247994422912598 5.966526985168457 -12.461224555969238 -1.4831814765930176 -11.5618257522583 17.493854522705078 -7.653723239898682 8.303071022033691 -28.522703170776367 -3.307706594467163 1.3328837156295776 -8.731497764587402 1.9459991455078125 0.4709869921207428 3.1058034896850586 -4.621208190917969 -0.795305073261261 -1.0615358352661133 0.5226698517799377 57.1634635925293 42.21615219116211 7.069094181060791 -48.77888870239258 -25.16267967224121 48.09791946411133 -1.4613696336746216 -29.40420913696289 1.2140138149261475 -0.030941439792513847 -0.9888235926628113 8.058822631835938 -4.792205810546875 0.8408538103103638 7.092115879058838 0.5546398758888245 -3.8041350841522217 6.384122848510742 7.550597190856934 17.01019859313965 5.897716999053955 2.016921043395996 2.0230307579040527 -1.0584216117858887 6.467569351196289 6.460928916931152 -4.093550682067871 -5.899662017822266 0.9557815194129944 3.878199577331543 21.30731964111328 3.006375789642334 5.368803977966309 -7.132598400115967 -1.4283140897750854 -4.875396251678467 4.409956932067871 -4.386422157287598 4.977781772613525 6.316803455352783 0.046776626259088516 0.15051265060901642 -40.711952209472656 38.54806137084961 -40.47993850708008 31.676488876342773 -30.583860397338867 -75.9004135131836 11.255692481994629 -15.348885536193848 1.5932594537734985 -7.182884216308594 1.265755295753479 2.5504069328308105 0.7298201322555542 6.5988922119140625 3.1865696907043457 -3.9024062156677246 1.327848196029663 6.5181193351745605 -5.116905689239502 7.8648481369018555 4.291691303253174 -1.7362134456634521 -0.23854167759418488 -3.3863046169281006 -4.257174491882324 4.196377277374268 -1.117997646331787 -1.4830783605575562 5.524122714996338 -4.235989093780518 -9.179702758789062 4.19966459274292 -0.5170007348060608 7.855597972869873 0.7469282150268555 0.5651014447212219 -1.0062472820281982 4.6889262199401855 2.297316312789917 6.469141483306885 -3.501748561859131 1.4808526039123535 -50.07353973388672 -35.02473449707031 -41.35459518432617 0.8972089886665344 57.910526275634766 5.388116359710693 -4.8779377937316895 -20.407629013061523 -4.492067337036133 -1.8370640277862549 -0.7428553104400635 3.4419426918029785 44.700801849365234 -38.91592025756836 41.100860595703125 8.839733123779297 50.52496337890625 -14.135871887207031 10.08126449584961 -14.6387357711792 14.544748306274414
-1.5008078183323625 17.475088510349106 0.012185724489963882 -7.954528331756592 -0.6330187320709229 6.748348236083984 2.1754045486450195 17.031436920166016 3.7592761516571045 4.816450595855713 -12.552230834960938 3.810274124145508 -5.5859503746032715 19.850488662719727 -0.44225797057151794 10.310083389282227 -28.028684616088867 -0.8330839276313782 -0.2069295197725296 -2.4874846935272217 -0.10479214787483215 -0.676213264465332 -0.13951528072357178 0.2369457632303238 -0.03441152349114418 -0.55577152967453 0.20758278667926788 44.0489616394043 45.30229187011719 16.61484146118164 -40.49546432495117 -30.82023048400879 60.61410140991211 -4.381962776184082 -21.594268798828125 -4.101015567779541 -0.37056317925453186 0.3323136270046234 0.8085172772407532 0.009603004902601242 -0.3832707107067108 1.0431175231933594 0.08114870637655258 0.6529120206832886 -0.5936582088470459 9.328333854675293 8.842053413391113 0.22985540330410004 1.2647819519042969 -0.37830790877342224 1.5464528799057007 6.773309707641602 1.0957900285720825 0.40868133306503296 -2.461031675338745 1.285851240158081 -0.3951139450073242 16.38916015625 0.4880977272987366 0.8810861110687256 -0.34840336441993713 0.21040290594100952 0.3122696876525879 3.708615779876709 -2.191410779953003 -0.13313770294189453 1.552108645439148 0.9962446093559265 -0.16618654131889343 -45.62462615966797 38.16200637817383 -37.91362380981445 31.939502716064453 -29.826642990112305 -65.48245239257812 5.401453018188477 -9.921573638916016 4.468736171722412 -2.511977434158325 -2.8715567588806152 2.6773548126220703 -0.19201521575450897 0.44464361667633057 1.5671230554580688 0.672249436378479 -0.11509381979703903 0.788673460483551 -10.04107666015625 9.917562484741211 0.11387086659669876 -0.3666309416294098 0.3661423623561859 -0.4049387574195862 -7.128245830535889 3.7392828464508057 0.09355589002370834 -0.7061042785644531 -0.2884541451931 -0.07224126905202866 -12.9160737991333 1.7011221647262573 -0.8860376477241516 1.148447036743164 -1.197157621383667 -0.850567638874054 -3.9380393028259277 -3.124831199645996 0.13724596798419952 0.9085482954978943 -0.2638451159000397 -0.4961811602115631 -34.81617736816406 -37.29339599609375 -28.03084373474121 -0.07640131562948227 63.49435806274414 2.273566961288452 -6.253056526184082 -14.67790699005127 -9.897160530090332 0.88422691822052 2.085188150405884 -0.4168895483016968 44.5825080871582 -41.426849365234375 38.237430572509766 7.209848403930664 64.60448455810547 -9.729597091674805 5.315410614013672 -12.004670143127441 12.197632789611816
-0.7940266732086131 38.18441161157723 0.5594859011970296 -0.6318628787994385 12.033519744873047 4.892659664154053 -3.065152168273926 13.540384292602539 4.584184169769287 2.6731724739074707 -10.411919593811035 1.505556583404541 -6.213277816772461 16.591840744018555 -3.462035894393921 10.274858474731445 -25.55412483215332 -6.526341915130615 0.23606161773204803 0.9043521285057068 0.12034492194652557 0.4539183974266052 0.021550925448536873 0.03801243379712105 0.276600182056427 -0.13981258869171143 -0.18016472458839417 44.068031311035156 34.75287628173828 19.68332290649414 -28.403350830078125 -32.335628509521484 65.28824615478516 -2.08805775642395 -10.026848793029785 -1.9722381830215454 -0.33775338530540466 0.38291245698928833 -0.11347629129886627 0.2782309651374817 -0.11860262602567673 0.12062021344900131 0.18094193935394287 0.23760713636875153 0.44289281964302063 7.407083511352539 6.27324104309082 0.5851730704307556 -0.4755153954029083 0.40955349802970886 -0.6950283050537109 3.4919891357421875 1.2415566444396973 0.018652847036719322 0.6425105929374695 0.4020557701587677 -0.30258604884147644 10.104540824890137 0.9112915992736816 -0.22589686512947083 0.4018256664276123 -0.2144334465265274 0.4503209590911865 1.380025029182434 -0.39406442642211914 -0.1604946404695511 -0.7993725538253784 -0.2565480172634125 -0.5033522844314575 -53.72948455810547 42.364715576171875 -26.4801025390625 28.727603912353516 -31.395919799804688 -60.838958740234375 1.601783275604248 -18.31827163696289 2.851654291152954 0.5548878908157349 0.29795995354652405 0.1442791074514389 -0.1478036642074585 -0.2829533517360687 -0.20806890726089478 -0.7108391523361206 0.003401383524760604 0.2676028311252594 -7.813150405883789 5.076177597045898 -0.514694094657898 0.10148829221725464 0.16826245188713074 0.250125527381897 -2.8622589111328125 0.5910131335258484 0.2572234869003296 0.4729495942592621 -0.3399497866630554 0.09789847582578659 -10.231162071228027 0.3559217154979706 0.5564466118812561 0.4896056056022644 0.1715356558561325 -0.07349352538585663 -2.6457931995391846 -0.2215937077999115 0.5283274054527283 -0.9103477597236633 0.11250313371419907 0.4616580009460449 -31.342357635498047 -38.15081024169922 -26.43507194519043 -0.6971048712730408 66.40232849121094 1.8592888116836548 -2.9499294757843018 -9.703971862792969 -8.069456100463867 -0.4359162747859955 -0.6123612523078918 0.015560580417513847 33.023319244384766 -34.15777587890625 26.088520050048828 0.3944385349750519 63.430084228515625 -0.8333536982536316 6.079408645629883 -11.81164836883545 15.508938789367676
-1.1159900512953782 36.50890815156516 0.5957423595804555 2.1187734603881836 32.275081634521484 1.0578876733779907 -5.491745948791504 15.15087890625 2.6073338985443115 3.731430768966675 -9.535059928894043 0.37722912430763245 -6.691842079162598 16.278728485107422 -8.376123428344727 11.683211326599121 -26.778789520263672 -14.049973487854004 0.4734438359737396 0.6335341334342957 -0.26935601234436035 -0.014332653023302555 0.5042977333068848 0.09399988502264023 -0.2095411717891693 -0.3032263517379761 -0.9072645306587219 40.516998291015625 27.214778900146484 24.871009826660156 -27.09390640258789 -33.8866081237793 64.64131927490234 -1.3722038269042969 -3.714036464691162 0.6841647624969482 -0.5508304834365845 -0.3834333121776581 0.6413077116012573 0.11433729529380798 0.25648099184036255 0.4827736020088196 0.5106826424598694 -0.030324401333928108 0.20541903376579285 7.7329936027526855 5.846127986907959 0.28291594982147217 0.6419289708137512 -0.24754682183265686 -0.2703748345375061 2.1824676990509033 1.3876177072525024 0.17944501340389252 0.46461221575737 -0.18513910472393036 0.6062322854995728 10.324172973632812 0.2958435118198395 -0.049343958497047424 -0.30101248621940613 -0.13120593130588531 -0.4229125380516052 1.5405970811843872 0.3949786424636841 -0.7599960565567017 -0.5562486052513123 0.6356342434883118 -0.2213977426290512 -57.227657318115234 49.48130798339844 -19.927629470825195 28.750640869140625 -33.24382019042969 -67.90431213378906 2.7604990005493164 -28.009767532348633 5.377458095550537 -0.14435304701328278 -0.10641564428806305 0.2838963568210602 -1.0241001844406128 0.5368028283119202 0.23943690955638885 -0.0640973225235939 0.5534818172454834 -0.0692637488245964 -6.74450159072876 5.347414970397949 -0.9661515355110168 -0.11226574331521988 0.26842179894447327 -0.09088244289159775 -2.5594723224639893 -0.13140691816806793 0.5299112200737 -0.10538464784622192 1.2128429412841797 0.3560393452644348 -10.738794326782227 1.2857722043991089 -0.06652000546455383 -0.29929104447364807 -0.3001147210597992 0.3283362090587616 -1.832279086112976 -1.5766953229904175 0.9532235860824585 -0.07339543104171753 0.7354919910430908 0.7607969045639038 -39.653594970703125 -46.38579177856445 -32.69389724731445 -2.9413390159606934 69.704833984375 4.39675235748291 -1.7312214374542236 -7.36008358001709 -3.640054702758789 -1.2845689058303833 0.2744617164134979 0.933277428150177 27.64584732055664 -30.934371948242188 22.33812141418457 0.5837485790252686 64.08441162109375 -2.005971908569336 7.444362640380859 -15.627735137939453 18.425302505493164
